<?xml version="1.0" encoding="utf-8"?>
<!-- Generator: Adobe Illustrator 25.2.1, SVG Export Plug-In . SVG Version: 6.00 Build 0)  -->
<svg version="1.1" id="Camada_1" xmlns="http://www.w3.org/2000/svg" xmlns:xlink="http://www.w3.org/1999/xlink" x="0px" y="0px"
	width="24" height="24" viewBox="0 0 24 24" style="enable-background:new 0 0 24 24;" xml:space="preserve">
<style type="text/css">
	.st0{fill:#3C9044;}
</style>
<path class="st0" d="M11.2,18H13v-5h5v-1.8h-5V6h-1.8v5.2H6V13h5.2V18z M12,24c-1.7,0-3.3-0.3-4.7-0.9s-2.8-1.4-3.8-2.5
	s-1.9-2.3-2.5-3.8S0,13.7,0,12s0.3-3.2,0.9-4.7c0.6-1.4,1.4-2.7,2.5-3.8s2.3-1.9,3.8-2.6S10.3,0,12,0s3.2,0.3,4.7,0.9
	c1.5,0.6,2.7,1.4,3.8,2.6c1.1,1.1,1.9,2.3,2.5,3.8s0.9,3,0.9,4.7c0,1.7-0.3,3.3-0.9,4.7s-1.5,2.8-2.5,3.8c-1.1,1.1-2.3,1.9-3.8,2.5
	C15.2,23.7,13.7,24,12,24z M12,12L12,12L12,12L12,12L12,12L12,12L12,12L12,12L12,12z M12,22.2c2.8,0,5.2-1,7.2-3s3-4.4,3-7.2
	s-1-5.2-3-7.2s-4.4-3-7.2-3s-5.2,1-7.2,3s-3,4.4-3,7.2s1,5.2,3,7.2S9.2,22.2,12,22.2z"/>
</svg>
