<?xml version="1.0" encoding="utf-8"?>
<!-- Generator: Adobe Illustrator 25.2.1, SVG Export Plug-In . SVG Version: 6.00 Build 0)  -->
<svg version="1.1" id="Camada_1" xmlns="http://www.w3.org/2000/svg" xmlns:xlink="http://www.w3.org/1999/xlink" x="0px" y="0px"
	width="24" height="24" viewBox="0 0 24 24" style="enable-background:new 0 0 24 24;" xml:space="preserve">
<style type="text/css">
	.st0{fill:#3C9044;}
</style>
<path class="st0" d="M12,23.2l-1.2-1.1c-3.1-2.9-5.7-5.4-7.6-7.6S0.3,10.2,0.3,8c0-1.7,0.6-3.2,1.7-4.4s2.6-1.7,4.4-1.7
	c1,0,2,0.2,2.9,0.7C10.3,3,11.2,3.8,12,4.9c0.9-1.1,1.7-1.9,2.6-2.3c0.9-0.5,1.9-0.7,2.9-0.7c1.7,0,3.2,0.6,4.4,1.7s1.7,2.6,1.7,4.4
	c0,2.2-0.9,4.4-2.9,6.5s-4.4,4.7-7.6,7.6L12,23.2z M12,12.2L12,12.2L12,12.2L12,12.2L12,12.2L12,12.2L12,12.2L12,12.2L12,12.2
	L12,12.2L12,12.2L12,12.2L12,12.2z M12,20.9c3-2.7,5.4-5.1,7.2-7.1c1.8-2,2.7-4,2.7-5.8c0-1.3-0.4-2.3-1.2-3.1
	c-0.8-0.8-1.9-1.2-3.1-1.2c-1,0-1.9,0.3-2.7,0.9c-0.9,0.6-1.6,1.5-2.1,2.6h-1.5C10.7,6,10,5.2,9.1,4.6C8.3,4,7.4,3.7,6.4,3.7
	c-1.3,0-2.3,0.4-3.1,1.2S2.1,6.7,2.1,8c0,1.9,0.9,3.8,2.7,5.8S9,18.2,12,20.9z"/>
</svg>
