<?xml version="1.0" encoding="utf-8"?>
<!-- Generator: Adobe Illustrator 25.2.1, SVG Export Plug-In . SVG Version: 6.00 Build 0)  -->
<svg version="1.1" id="Camada_1" xmlns="http://www.w3.org/2000/svg" xmlns:xlink="http://www.w3.org/1999/xlink" x="0px" y="0px"
	width="24" height="24" viewBox="0 0 24 24" style="enable-background:new 0 0 24 24;" xml:space="preserve">
<style type="text/css">
	.st0{fill:#3C9044;}
</style>
<path class="st0" d="M16.6,4.1l-4.5,4.1L10.8,7l2.4-2.1H12C9.8,4.9,7.9,5.6,6.3,7S4,10,4,12c0,0.5,0.1,1,0.2,1.5
	c0.1,0.5,0.2,0.9,0.4,1.3l-1.3,1.2c-0.4-0.7-0.7-1.3-0.9-2c-0.2-0.7-0.3-1.4-0.3-2.1c0-2.4,1-4.4,2.9-6.2S9.3,3.2,12,3.2h1.3L10.8,1
	l1.2-1L16.6,4.1z M7.3,19.9l4.5-4.1l1.2,1l-2.5,2.2H12c2.2,0,4.1-0.7,5.7-2.1c1.6-1.4,2.3-3.1,2.3-5c0-0.5-0.1-1-0.1-1.5
	s-0.2-0.9-0.5-1.3l1.4-1.2c0.4,0.7,0.7,1.3,0.9,2s0.2,1.4,0.2,2c0,2.4-1,4.4-2.9,6.2c-2,1.8-4.2,2.6-6.9,2.6h-1.4l2.5,2.2L11.9,24
	L7.3,19.9z"/>
</svg>
