<?xml version="1.0" encoding="utf-8"?>
<!-- Generator: Adobe Illustrator 25.2.1, SVG Export Plug-In . SVG Version: 6.00 Build 0)  -->
<svg version="1.1" id="Camada_1" xmlns="http://www.w3.org/2000/svg" xmlns:xlink="http://www.w3.org/1999/xlink" x="0px" y="0px"
	width="136" height="32"  viewBox="0 0 136 32" style="enable-background:new 0 0 136 32;" xml:space="preserve">
<style type="text/css">
	.st0{fill:#FFFFFF;}
</style>
<path id="path6965" class="st0" d="M116.8,25.1l-6.7-9.1l6.2-8.2h-2.3l-5,6.7l-5-6.7h-2.3l6.1,8.2l-6.7,9.1h2.3l5.6-7.5l5.6,7.5
	L116.8,25.1"/>
<path id="path6967" class="st0" d="M71,25.1l-6.7-9.1l6.1-8.2h-2.3l-5,6.7l-5-6.7h-2.3l6.2,8.2l-6.7,9.1h2.3l5.6-7.5l5.6,7.5
	L71,25.1"/>
<path id="path6969" class="st0" d="M79,23.3h-5.1V17H79c2,0,4.3,0.5,4.3,3C83.3,22.9,80.6,23.3,79,23.3z M73.9,9.6H79
	c1.4,0,3.7,0.3,3.7,2.7c0,1.8-1.4,2.9-3.7,2.9h-5.1V9.6z M83.7,16.7c-0.4-0.3-0.8-0.5-1.2-0.7c1.3-0.7,2.1-2,2.1-3.5
	c0-1.1-0.4-4.7-5.7-4.7h-7.1v7.5h-2.4c-0.3,0.4-1,1.3-1.3,1.7h3.6v8.1H79c3.9,0,6.2-1.9,6.2-5.1C85.3,18.7,84.7,17.5,83.7,16.7"/>
<path id="path6971" class="st0" d="M94.5,23.7c-3.8,0-6.4-3-6.4-7.2s2.6-7.2,6.4-7.2c3.7,0,6.3,3,6.3,7.2
	C100.8,20.7,98.2,23.7,94.5,23.7z M94.5,7.4c-4.9,0-8.4,3.7-8.4,9s3.4,9,8.4,9c4.9,0,8.3-3.7,8.3-9S99.4,7.4,94.5,7.4"/>
<g id="g4146" transform="translate(-1.013 3.163) scale(.23106)">
	<path id="path4148" class="st0" d="M144.9,119.1c-9.8-0.9-19.7-4.5-28.3-10c-7.2-4.7-8.8-6.6-8.8-10.4c0-7.7,8.5-21.2,22.9-36.5
		c8.2-8.7,19.6-19,20.9-18.7c2.4,0.5,21.6,19.3,28.8,28.1c11.4,14,16.6,25.4,14,30.5c-2,3.9-14.6,11.5-23.8,14.4
		C163.1,118.8,153.1,119.9,144.9,119.1z M98.2,90.6c-5.9-9.1-8.9-18.1-10.4-31.1c-0.5-4.3-0.3-6.7,1.1-15.5c1.7-11,8-23.7,15.5-31.5
		c3.2-3.3,3.5-3.4,7.4-2.1c4.7,1.6,9.8,5.1,17.6,12.2l4.6,4.1l-2.5,3.1C119.8,44,107.6,64.2,103,76.7c-2.5,6.8-3.5,13.6-2.4,16.4
		C101.3,95.1,100.6,94.4,98.2,90.6z M202.5,92.2c0.6-2.9-0.2-8.1-1.9-13.4c-3.8-11.5-16.4-32.9-27.9-47.5l-3.6-4.6L173,23
		c5.1-4.7,8.7-7.6,12.6-10c3-1.9,7.4-3.6,9.2-3.6c1.2,0,5.2,4.2,8.5,8.8c5.1,7.1,8.8,15.7,10.7,24.7c1.2,5.8,1.3,18.2,0.2,24
		c-0.9,4.7-2.9,10.9-4.8,15.1c-1.4,3.1-5,9.2-6.5,11.2C202,94.4,202,94.4,202.5,92.2L202.5,92.2z M145.9,7.3
		c-5.3-2.7-13.6-5.6-18.1-6.4c-1.6-0.3-4.3-0.4-6-0.3c-3.8,0.2-3.6,0,2.4-2.8c5-2.4,9.2-3.8,14.8-4.9c6.4-1.3,18.3-1.4,24.6,0
		c6.8,1.4,14.7,4.4,19.2,7.2l1.3,0.8l-3.1-0.2c-6.1-0.3-15,2.2-24.5,6.8c-2.9,1.4-5.4,2.5-5.5,2.5C151,9.8,148.6,8.7,145.9,7.3z"/>
</g>
</svg>
